<svg width="1200" height="630" viewBox="0 0 1200 630" fill="none" xmlns="http://www.w3.org/2000/svg" role="img" aria-label="اکتان بوستر برای خودروهای توربو">
  <rect width="1200" height="630" rx="42" fill="#F8FAFC"/>
  <path d="M195 418c53-70 119-104 198-104h248c48 0 90 17 124 51l45 45h126c38 0 69 31 69 69v34H162v-35c0-22 12-44 33-60Z" fill="#111827"/>
  <path d="M353 331h249c34 0 65 13 90 39l30 31H279c20-47 44-70 74-70Z" fill="#E5E7EB"/>
  <circle cx="343" cy="514" r="57" fill="#0F172A"/>
  <circle cx="343" cy="514" r="22" fill="#FFFFFF"/>
  <circle cx="822" cy="514" r="57" fill="#0F172A"/>
  <circle cx="822" cy="514" r="22" fill="#FFFFFF"/>
  <path d="M911 181c48-67 107-79 136-79-26 39-24 85 10 136 26 39 17 91-25 122-49 37-128 17-151-42-16-39-5-90 30-137Z" fill="#FF6B35"/>
  <path d="M164 177h85c19 0 35 16 35 35v144c0 19-16 35-35 35h-85c-19 0-35-16-35-35V212c0-19 16-35 35-35Z" fill="#FFFFFF" stroke="#E5E7EB" stroke-width="8"/>
  <rect x="177" y="143" width="58" height="44" rx="14" fill="#FF6B35"/>
  <text x="207" y="278" text-anchor="middle" font-family="Arial, sans-serif" font-size="32" font-weight="900" fill="#111827">TURBO</text>
  <text x="1072" y="196" text-anchor="end" direction="rtl" font-family="Arial, sans-serif" font-size="54" font-weight="900" fill="#111827">اکتان برای توربو</text>
  <text x="1072" y="260" text-anchor="end" direction="rtl" font-family="Arial, sans-serif" font-size="29" font-weight="700" fill="#667085">انتخاب درست برای موتورهای حساس‌تر</text>
</svg>
